<svg xmlns="http://www.w3.org/2000/svg" width="136" height="137" viewBox="0 0 136 137" fill="none">
    <g filter="url(#filter0_i_23_322)">
        <circle cx="68.0459" cy="68.8064" r="67.8111" fill="url(#paint0_linear_23_322)"/>
    </g>
    <circle cx="68.0459" cy="68.8064" r="67.3111" stroke="url(#paint1_linear_23_322)" stroke-opacity="0.24"/>
    <g clip-path="url(#clip0_23_322)">
        <path d="M73.6359 49.4214C73.977 48.9903 74.1957 48.4739 74.2686 47.9274C74.3415 47.3809 74.2659 46.8247 74.0498 46.318C71.9941 41.4989 69.9756 36.2344 67.6873 31.6544C66.7571 29.7792 65.3618 30.1027 64.3758 31.72C62.5154 34.739 60.5015 37.6924 59.0272 40.8989C50.7531 58.8768 47.4602 65.1351 48.8369 84.7257C48.8974 85.5649 49.2183 100.664 50.1345 107.031C50.3252 108.348 52.46 108.929 52.7623 107.64C57.1994 89.4464 62.4456 82.349 67.0594 75.7203C72.9754 67.2306 82.9703 58.9097 84.9703 58.0658C79.6449 64.5398 74.594 71.0559 71.1197 78.6362C70.9582 78.9873 70.8702 79.3681 70.8614 79.755C70.8526 80.1419 70.9231 80.5264 71.0684 80.8846C71.2138 81.2428 71.4309 81.5668 71.7063 81.8366C71.9816 82.1063 72.3091 82.3158 72.6685 82.4521L94.4489 90.8247C94.7034 90.9239 94.9815 90.9436 95.2472 90.8812C95.513 90.8189 95.7539 90.6772 95.9386 90.4749C96.1233 90.2725 96.2433 90.0188 96.2828 89.7467C96.3224 89.4746 96.2798 89.1968 96.1605 88.9495L88.4213 72.4388C87.4585 70.4465 88.5282 68.3932 89.4398 66.4196C92.4583 59.9129 95.4256 53.3498 98.3929 46.7868C98.5353 46.4695 98.5836 46.1175 98.5319 45.7732C98.4802 45.4289 98.3308 45.107 98.1017 44.8463C97.8726 44.5856 97.5736 44.3974 97.2407 44.3042C96.9078 44.2109 96.5553 44.2168 96.2256 44.321C79.8821 49.5667 67.6687 59.6503 57.4459 72.917C57.4459 72.917 57.4087 72.917 57.4459 72.917C57.4831 72.917 60.2829 65.7211 62.4922 62.7256C64.8595 59.5144 73.6359 49.4214 73.6359 49.4214ZM46.1952 70.8497C46.1952 69.087 46.7347 65.5852 47.3719 63.0678C47.4206 62.8821 47.4115 62.6857 47.3459 62.5054C47.2803 62.325 47.1613 62.1693 47.005 62.0594C46.8487 61.9494 46.6627 61.8905 46.4721 61.8906C46.2815 61.8907 46.0956 61.9498 45.9394 62.0599C42.9433 64.177 40.1997 66.6357 37.763 69.387C37.6527 69.5124 37.5777 69.6653 37.546 69.8298C37.5142 69.9943 37.5267 70.1644 37.5823 70.3223C37.6378 70.4803 37.7344 70.6203 37.8619 70.7279C37.9894 70.8355 38.1431 70.9067 38.3071 70.934L44.7627 72.0544C44.9369 72.0853 45.1157 72.0773 45.2865 72.0309C45.4573 71.9845 45.6159 71.9009 45.7512 71.7861C45.8865 71.6712 45.9951 71.5278 46.0694 71.366C46.1437 71.2042 46.1819 71.0279 46.1812 70.8497H46.1952Z" fill="url(#paint2_linear_23_322)"/>
    </g>
    <defs>
        <filter id="filter0_i_23_322" x="0.234863" y="0.9953" width="135.622" height="139.622" filterUnits="userSpaceOnUse" color-interpolation-filters="sRGB">
            <feFlood flood-opacity="0" result="BackgroundImageFix"/>
            <feBlend mode="normal" in="SourceGraphic" in2="BackgroundImageFix" result="shape"/>
            <feColorMatrix in="SourceAlpha" type="matrix" values="0 0 0 0 0 0 0 0 0 0 0 0 0 0 0 0 0 0 127 0" result="hardAlpha"/>
            <feOffset dy="4"/>
            <feGaussianBlur stdDeviation="12"/>
            <feComposite in2="hardAlpha" operator="arithmetic" k2="-1" k3="1"/>
            <feColorMatrix type="matrix" values="0 0 0 0 0.12549 0 0 0 0 0.192157 0 0 0 0 0.294118 0 0 0 1 0"/>
            <feBlend mode="normal" in2="shape" result="effect1_innerShadow_23_322"/>
        </filter>
        <linearGradient id="paint0_linear_23_322" x1="68.0459" y1="0.9953" x2="68.0459" y2="136.617" gradientUnits="userSpaceOnUse">
            <stop stop-color="#1B202F"/>
            <stop offset="1" stop-color="#1A2232"/>
        </linearGradient>
        <linearGradient id="paint1_linear_23_322" x1="68.0459" y1="0.9953" x2="68.0459" y2="136.617" gradientUnits="userSpaceOnUse">
            <stop stop-color="#53CDE5"/>
            <stop offset="1" stop-color="#3659A2"/>
        </linearGradient>
        <linearGradient id="paint2_linear_23_322" x1="40.1815" y1="74.9328" x2="99.5505" y2="57.6398" gradientUnits="userSpaceOnUse">
            <stop stop-color="#314797"/>
            <stop offset="1" stop-color="#5CEFF9"/>
        </linearGradient>
        <clipPath id="clip0_23_322">
            <rect width="61.0299" height="77.9827" fill="white" transform="translate(37.5308 30.3801)"/>
        </clipPath>
    </defs>
</svg>