<svg width="12" height="15" viewBox="0 0 12 15" fill="none" xmlns="http://www.w3.org/2000/svg">
    <path fill-rule="evenodd" clip-rule="evenodd" d="M3.5 3.99999C3.49991 3.45918 3.67518 2.93293 3.99953 2.50019C4.32387 2.06744 4.7798 1.75154 5.2989 1.59987C5.818 1.44821 6.37229 1.46897 6.87859 1.65903C7.3849 1.84908 7.81593 2.1982 8.107 2.65399C8.21415 2.8216 8.38349 2.93979 8.57778 2.98255C8.77207 3.02531 8.97538 2.98913 9.143 2.88199C9.31062 2.77484 9.4288 2.60549 9.47156 2.41121C9.51432 2.21692 9.47815 2.0136 9.371 1.84599C8.90523 1.11679 8.21556 0.55828 7.40547 0.254256C6.59538 -0.0497684 5.70855 -0.0829164 4.87802 0.159785C4.04749 0.402487 3.31806 0.907951 2.79915 1.60034C2.28024 2.29274 1.99983 3.13473 2 3.99999V5.99999H1.499C1.10135 6.00025 0.720075 6.1584 0.438986 6.43968C0.157898 6.72096 -8.8367e-08 7.10233 0 7.49999V13.5C0 13.8978 0.158035 14.2793 0.43934 14.5606C0.720644 14.842 1.10218 15 1.5 15H10.5C10.8978 15 11.2794 14.842 11.5607 14.5606C11.842 14.2793 12 13.8978 12 13.5V7.49999C12 7.10216 11.842 6.72063 11.5607 6.43933C11.2794 6.15802 10.8978 5.99999 10.5 5.99999H3.5V3.99999ZM2.75 7.49999H1.5V13.5H10.5V7.49999H2.75Z" fill="white"/>
</svg>
