<svg width="16" height="17" viewBox="0 0 16 17" fill="none" xmlns="http://www.w3.org/2000/svg">
<g clip-path="url(#clip0_111:114)">
<path d="M14.0002 14.5L11.0095 11.504L14.0002 14.5ZM12.6668 7.49998C12.6668 9.00287 12.0698 10.4442 11.0071 11.5069C9.9444 12.5696 8.50306 13.1666 7.00016 13.1666C5.49727 13.1666 4.05593 12.5696 2.99322 11.5069C1.93052 10.4442 1.3335 9.00287 1.3335 7.49998C1.3335 5.99709 1.93052 4.55575 2.99322 3.49304C4.05593 2.43034 5.49727 1.83331 7.00016 1.83331C8.50306 1.83331 9.9444 2.43034 11.0071 3.49304C12.0698 4.55575 12.6668 5.99709 12.6668 7.49998V7.49998Z" stroke="#82C8F4" stroke-width="2" stroke-linecap="round"/>
</g>
<defs>
<clipPath id="clip0_111:114">
<rect width="16" height="16" fill="white" transform="translate(0 0.5)"/>
</clipPath>
</defs>
</svg>
